<svg width="458" height="97" viewBox="0 0 458 97" fill="none" xmlns="http://www.w3.org/2000/svg">
<path d="M0.970001 95V4H31.39C41.9633 4 50.6733 5.90667 57.52 9.72C64.4533 13.4467 69.5667 18.7333 72.86 25.58C76.24 32.34 77.93 40.3133 77.93 49.5C77.93 58.6867 76.24 66.7033 72.86 73.55C69.5667 80.31 64.4967 85.5967 57.65 89.41C50.8033 93.1367 42.05 95 31.39 95H0.970001ZM18.52 79.92H30.48C37.9333 79.92 43.7833 78.7067 48.03 76.28C52.3633 73.8533 55.44 70.3867 57.26 65.88C59.08 61.2867 59.99 55.8267 59.99 49.5C59.99 43.0867 59.08 37.6267 57.26 33.12C55.44 28.5267 52.3633 25.0167 48.03 22.59C43.7833 20.1633 37.9333 18.95 30.48 18.95H18.52V79.92Z" fill="#333333"/>
<path d="M88.3341 95V29.48H105.884V95H88.3341ZM97.1741 20.51C94.0541 20.51 91.4541 19.6 89.3741 17.78C87.3807 15.8733 86.3841 13.49 86.3841 10.63C86.3841 7.77 87.3807 5.43 89.3741 3.61C91.4541 1.70333 94.0541 0.75 97.1741 0.75C100.381 0.75 102.981 1.70333 104.974 3.61C107.054 5.43 108.094 7.77 108.094 10.63C108.094 13.49 107.054 15.8733 104.974 17.78C102.981 19.6 100.381 20.51 97.1741 20.51Z" fill="#333333"/>
<path d="M119.068 95V29.48H134.538L135.838 40.14C137.831 36.5 140.648 33.5533 144.288 31.3C148.015 29.0467 152.435 27.92 157.548 27.92C163.008 27.92 167.601 29.0467 171.328 31.3C175.055 33.5533 177.871 36.8467 179.778 41.18C181.771 45.5133 182.768 50.8433 182.768 57.17V95H165.348V58.86C165.348 53.66 164.221 49.6733 161.968 46.9C159.801 44.1267 156.421 42.74 151.828 42.74C148.881 42.74 146.238 43.4333 143.898 44.82C141.645 46.2067 139.868 48.2 138.568 50.8C137.268 53.3133 136.618 56.39 136.618 60.03V95H119.068Z" fill="#333333"/>
<path d="M216.852 96.56C211.392 96.56 206.886 95.6933 203.332 93.96C199.779 92.14 197.136 89.7567 195.402 86.81C193.756 83.7767 192.932 80.44 192.932 76.8C192.932 72.8133 193.929 69.3033 195.922 66.27C198.002 63.2367 201.079 60.8533 205.152 59.12C209.312 57.3867 214.512 56.52 220.752 56.52H237.002C237.002 53.3133 236.569 50.67 235.702 48.59C234.836 46.4233 233.492 44.82 231.672 43.78C229.852 42.74 227.426 42.22 224.392 42.22C221.099 42.22 218.282 42.9567 215.942 44.43C213.689 45.8167 212.302 47.9833 211.782 50.93H194.752C195.186 46.25 196.702 42.22 199.302 38.84C201.989 35.3733 205.499 32.6867 209.832 30.78C214.252 28.8733 219.149 27.92 224.522 27.92C230.676 27.92 236.006 28.96 240.512 31.04C245.019 33.12 248.486 36.11 250.912 40.01C253.339 43.91 254.552 48.72 254.552 54.44V95H239.732L237.782 84.99C236.829 86.7233 235.702 88.2833 234.402 89.67C233.102 91.0567 231.586 92.27 229.852 93.31C228.119 94.35 226.169 95.13 224.002 95.65C221.836 96.2567 219.452 96.56 216.852 96.56ZM221.012 83.04C223.266 83.04 225.259 82.65 226.992 81.87C228.812 81.0033 230.372 79.8767 231.672 78.49C232.972 77.0167 233.969 75.37 234.662 73.55C235.442 71.6433 235.962 69.6067 236.222 67.44V67.31H222.832C220.146 67.31 217.936 67.6567 216.202 68.35C214.556 68.9567 213.342 69.8667 212.562 71.08C211.782 72.2933 211.392 73.68 211.392 75.24C211.392 76.9733 211.782 78.4033 212.562 79.53C213.342 80.6567 214.469 81.5233 215.942 82.13C217.416 82.7367 219.106 83.04 221.012 83.04Z" fill="#333333"/>
<path d="M298.094 96.56C291.507 96.56 285.657 95.0867 280.544 92.14C275.431 89.1933 271.444 85.1633 268.584 80.05C265.724 74.9367 264.294 69.0867 264.294 62.5C264.294 55.74 265.724 49.8033 268.584 44.69C271.444 39.49 275.431 35.4167 280.544 32.47C285.657 29.4367 291.507 27.92 298.094 27.92C306.501 27.92 313.564 30.13 319.284 34.55C325.004 38.97 328.644 45.0367 330.204 52.75H311.614C310.834 49.7167 309.187 47.3333 306.674 45.6C304.247 43.8667 301.344 43 297.964 43C294.931 43 292.201 43.78 289.774 45.34C287.434 46.8133 285.571 49.0233 284.184 51.97C282.884 54.83 282.234 58.2533 282.234 62.24C282.234 65.2733 282.624 68.0033 283.404 70.43C284.184 72.77 285.267 74.8067 286.654 76.54C288.041 78.1867 289.687 79.4433 291.594 80.31C293.587 81.1767 295.711 81.61 297.964 81.61C300.217 81.61 302.254 81.22 304.074 80.44C305.981 79.66 307.584 78.5767 308.884 77.19C310.184 75.7167 311.094 73.94 311.614 71.86H330.204C328.644 79.4 324.961 85.4233 319.154 89.93C313.434 94.35 306.414 96.56 298.094 96.56Z" fill="#333333"/>
<path d="M365.229 96.56C359.942 96.56 355.392 95.4767 351.579 93.31C347.852 91.0567 344.992 87.8067 342.999 83.56C341.006 79.2267 340.009 73.8967 340.009 67.57V29.48H357.559V65.75C357.559 71.0367 358.642 75.0233 360.809 77.71C363.062 80.3967 366.486 81.74 371.079 81.74C374.026 81.74 376.626 81.09 378.879 79.79C381.132 78.4033 382.909 76.4533 384.209 73.94C385.596 71.34 386.289 68.1767 386.289 64.45V29.48H403.709V95H388.369L386.939 84.34C385.032 88.0667 382.216 91.0567 378.489 93.31C374.762 95.4767 370.342 96.56 365.229 96.56Z" fill="#333333"/>
<path d="M445.856 95C441.263 95 437.233 94.3067 433.766 92.92C430.386 91.4467 427.743 89.0633 425.836 85.77C423.93 82.39 422.976 77.7967 422.976 71.99V44.17H411.796V29.48H422.976L424.926 11.67H440.526V29.48H457.816V44.17H440.526V72.25C440.526 75.1967 441.176 77.2333 442.476 78.36C443.776 79.4867 445.986 80.05 449.106 80.05H457.686V95H445.856Z" fill="#333333"/>
</svg>
