<svg width="77" height="76" viewBox="0 0 77 76" fill="none" xmlns="http://www.w3.org/2000/svg">
<ellipse cx="38.5" cy="38" rx="38.5" ry="38" fill="#333333"/>
<path d="M37.75 57.95C37.9167 57.95 38.1083 57.9083 38.325 57.825C38.5417 57.7417 38.7167 57.6333 38.85 57.5L55.7 40.6C56.1333 40.1667 56.4583 39.675 56.675 39.125C56.8917 38.575 57 38.0167 57 37.45C57 36.8833 56.8917 36.3167 56.675 35.75C56.4583 35.1833 56.1333 34.6833 55.7 34.25L46.7 25.25C46.2667 24.8167 45.7667 24.4917 45.2 24.275C44.6333 24.0583 44.0667 23.95 43.5 23.95C42.9333 23.95 42.375 24.0583 41.825 24.275C41.275 24.4917 40.7833 24.8167 40.35 25.25L39.45 26.15L43.5 30.25C43.9333 30.7167 44.3167 31.2583 44.65 31.875C44.9833 32.4917 45.15 33.1667 45.15 33.9C45.15 35.1667 44.6583 36.2833 43.675 37.25C42.6917 38.2167 41.5667 38.7 40.3 38.7C39.4667 38.7 38.775 38.575 38.225 38.325C37.675 38.075 37.1667 37.7167 36.7 37.25L33.05 33.6L24 42.65C23.8333 42.8167 23.7167 42.9917 23.65 43.175C23.5833 43.3583 23.55 43.55 23.55 43.75C23.55 44.1833 23.6917 44.5417 23.975 44.825C24.2583 45.1083 24.6167 45.25 25.05 45.25C25.25 45.25 25.4417 45.2 25.625 45.1C25.8083 45 25.9667 44.8833 26.1 44.75L33 37.85L35.1 39.95L28.25 46.8C28.0833 46.9667 27.9667 47.15 27.9 47.35C27.8333 47.55 27.8 47.75 27.8 47.95C27.8 48.35 27.95 48.7 28.25 49C28.55 49.3 28.9 49.45 29.3 49.45C29.5 49.45 29.6917 49.4083 29.875 49.325C30.0583 49.2417 30.2167 49.1333 30.35 49L37.25 42.1L39.35 44.2L32.5 51.05C32.3667 51.1833 32.2583 51.3583 32.175 51.575C32.0917 51.7917 32.05 52 32.05 52.2C32.05 52.6 32.2 52.95 32.5 53.25C32.8 53.55 33.15 53.7 33.55 53.7C33.75 53.7 33.9333 53.6667 34.1 53.6C34.2667 53.5333 34.4333 53.4167 34.6 53.25L41.5 46.35L43.6 48.45L36.7 55.35C36.5333 55.5167 36.4167 55.7 36.35 55.9C36.2833 56.1 36.25 56.2833 36.25 56.45C36.25 56.9167 36.3833 57.2833 36.65 57.55C36.9167 57.8167 37.2833 57.95 37.75 57.95ZM37.75 60.95C36.65 60.95 35.6667 60.5417 34.8 59.725C33.9333 58.9083 33.4167 57.9 33.25 56.7C32.1167 56.5333 31.1667 56.0667 30.4 55.3C29.6333 54.5333 29.1667 53.5833 29 52.45C27.8667 52.2833 26.925 51.8083 26.175 51.025C25.425 50.2417 24.9667 49.3 24.8 48.2C23.5667 48.0333 22.55 47.5333 21.75 46.7C20.95 45.8667 20.55 44.8667 20.55 43.7C20.55 43.1333 20.6583 42.5667 20.875 42C21.0917 41.4333 21.4167 40.9333 21.85 40.5L33.05 29.3L38.55 34.8C38.8167 35.0667 39.1083 35.275 39.425 35.425C39.7417 35.575 40.05 35.65 40.35 35.65C40.7833 35.65 41.1917 35.4583 41.575 35.075C41.9583 34.6917 42.15 34.2833 42.15 33.85C42.15 33.65 42.0917 33.425 41.975 33.175C41.8583 32.925 41.6667 32.6667 41.4 32.4L34.25 25.25C33.8167 24.8167 33.3167 24.4917 32.75 24.275C32.1833 24.0583 31.6167 23.95 31.05 23.95C30.4833 23.95 29.925 24.0583 29.375 24.275C28.825 24.4917 28.3333 24.8167 27.9 25.25L20.3 32.85C19.8333 33.3167 19.5083 33.8083 19.325 34.325C19.1417 34.8417 19.0333 35.4167 19 36.05C18.9667 36.7167 19.0917 37.3583 19.375 37.975C19.6583 38.5917 20 39.15 20.4 39.65L18.25 41.8C17.5833 41.0667 17.0417 40.1833 16.625 39.15C16.2083 38.1167 16 37.0667 16 36C16 35 16.1917 34.0417 16.575 33.125C16.9583 32.2083 17.5 31.4 18.2 30.7L25.75 23.15C26.4833 22.4167 27.3167 21.875 28.25 21.525C29.1833 21.175 30.1333 21 31.1 21C32.0667 21 33.0083 21.175 33.925 21.525C34.8417 21.875 35.6667 22.4167 36.4 23.15L37.3 24.05L38.2 23.15C38.9333 22.4167 39.7667 21.875 40.7 21.525C41.6333 21.175 42.5833 21 43.55 21C44.5167 21 45.4583 21.175 46.375 21.525C47.2917 21.875 48.1167 22.4167 48.85 23.15L57.8 32.1C58.5333 32.8333 59.0833 33.6667 59.45 34.6C59.8167 35.5333 60 36.4833 60 37.45C60 38.4167 59.8167 39.3583 59.45 40.275C59.0833 41.1917 58.5333 42.0167 57.8 42.75L40.95 59.6C40.5167 60.0333 40.025 60.3667 39.475 60.6C38.925 60.8333 38.35 60.95 37.75 60.95Z" fill="white"/>
</svg>
