<svg width="76" height="76" viewBox="0 0 76 76" fill="none" xmlns="http://www.w3.org/2000/svg">
<circle cx="38" cy="38" r="38" fill="#333333"/>
<path d="M34.35 42.7C35.1167 43.4667 36.225 43.825 37.675 43.775C39.125 43.725 40.1833 43.1833 40.85 42.15L51.65 25.2L34.9 36.15C33.9 36.8167 33.3667 37.8833 33.3 39.35C33.2333 40.8167 33.5833 41.9333 34.35 42.7ZM37.9 19C39.8 19 41.7833 19.3083 43.85 19.925C45.9167 20.5417 47.9 21.6 49.8 23.1L47.2 24.95C45.7 23.95 44.0917 23.2083 42.375 22.725C40.6583 22.2417 39.1667 22 37.9 22C33.2333 22 29.25 23.6667 25.95 27C22.65 30.3333 21 34.3833 21 39.15C21 40.65 21.2083 42.1667 21.625 43.7C22.0417 45.2333 22.6333 46.65 23.4 47.95H52.35C53.0833 46.75 53.6667 45.35 54.1 43.75C54.5333 42.15 54.75 40.5833 54.75 39.05C54.75 37.65 54.5417 36.1417 54.125 34.525C53.7083 32.9083 52.9667 31.4167 51.9 30.05L53.85 27.45C55.1167 29.3167 56.0667 31.1917 56.7 33.075C57.3333 34.9583 57.6833 36.85 57.75 38.75C57.8167 40.75 57.6167 42.6333 57.15 44.4C56.6833 46.1667 56 47.8 55.1 49.3C54.7 50.0667 54.275 50.5333 53.825 50.7C53.375 50.8667 52.8167 50.95 52.15 50.95H23.6C23.0333 50.95 22.475 50.8083 21.925 50.525C21.375 50.2417 20.9667 49.8333 20.7 49.3C19.8333 47.7 19.1667 46.075 18.7 44.425C18.2333 42.775 18 41.0167 18 39.15C18 36.3833 18.525 33.775 19.575 31.325C20.625 28.875 22.05 26.7417 23.85 24.925C25.65 23.1083 27.7583 21.6667 30.175 20.6C32.5917 19.5333 35.1667 19 37.9 19Z" fill="white"/>
</svg>
