<svg width="76" height="76" viewBox="0 0 76 76" fill="none" xmlns="http://www.w3.org/2000/svg">
<circle cx="38" cy="38" r="37.5" fill="#333333" stroke="#9D9D9D"/>
<path d="M38.051 38.5771L40.3764 43.2213L45.5767 43.9706L41.8138 47.5836L42.7019 52.6877L38.051 50.2766L33.4002 52.6877L34.2882 47.5836L30.5254 43.9706L35.7256 43.2213L38.051 38.5771Z" stroke="white" stroke-width="1.5" stroke-linecap="round" stroke-linejoin="round"/>
<path d="M42.97 34.1892L51 16M32.2963 34.5926L23 16M39.7171 33.3339L31.26 16M43.16 16L40.92 21.3846M25.1538 46.1538C25.1538 53.291 30.9397 59.0769 38.0769 59.0769C45.2141 59.0769 51 53.291 51 46.1538C51 39.0166 45.2141 33.2308 38.0769 33.2308C30.9397 33.2308 25.1538 39.0166 25.1538 46.1538Z" stroke="white" stroke-width="2" stroke-linecap="round" stroke-linejoin="round"/>
</svg>
