<svg width="77" height="76" viewBox="0 0 77 76" fill="none" xmlns="http://www.w3.org/2000/svg">
<ellipse cx="38.5" cy="38" rx="38.5" ry="38" fill="#333333"/>
<path d="M38.9998 52.2915C46.3444 52.2915 53.7266 51.0486 60.7322 48.6004L61.2218 48.4121V43.5534L58.5853 42.8001V39.5986C58.5853 32.0658 54.2539 25.2108 47.4743 21.934V21.1431C47.4743 19.6742 46.3067 18.5066 44.8378 18.5066H39.7531V17H38.2465V18.5066H33.1618C31.6929 18.5066 30.5253 19.6742 30.5253 21.1431V21.934C23.7457 25.2108 19.4143 32.1034 19.4143 39.5986V42.8001L16.7778 43.5534V48.4121L17.2675 48.6004C24.273 51.0863 31.6553 52.2915 38.9998 52.2915ZM18.2844 44.721L20.9209 43.9677V39.5986C20.9209 32.8944 24.6497 26.7551 30.5253 23.6289V30.5592H32.0319V21.1431C32.0319 20.5028 32.5215 20.0132 33.1618 20.0132H38.2465V35.8322H39.7531V20.0132H44.8378C45.4781 20.0132 45.9677 20.5028 45.9677 21.1431V30.5592H47.4743V23.6289C53.3499 26.7551 57.0787 32.8944 57.0787 39.5986V43.93L59.7152 44.6833V47.3575C46.3444 51.9149 31.6553 51.9149 18.2844 47.3575V44.721Z" fill="white" stroke="white" stroke-width="1.5" stroke-linejoin="round"/>
<path d="M26.5674 43.3689V43.3623H51.4324V43.3689H26.5674Z" fill="white" stroke="white" stroke-width="1.5" stroke-linejoin="round"/>
</svg>
