<svg width="61" height="61" viewBox="0 0 61 61" fill="none" xmlns="http://www.w3.org/2000/svg">
<g clip-path="url(#clip0_1099_171)">
<path fill-rule="evenodd" clip-rule="evenodd" d="M61 29.7164C61 46.1249 47.594 59.4297 31.0567 59.4297C25.8059 59.4297 20.8711 58.0894 16.5803 55.7339L0 61L5.40409 45.0576C2.67751 40.5798 1.10719 35.326 1.10719 29.7133C1.11026 13.3047 14.5162 0 31.0567 0C47.5971 0 61 13.3047 61 29.7164ZM31.0567 4.73241C17.1723 4.73241 5.87948 15.9362 5.87948 29.7164C5.87948 35.1787 7.65835 40.2424 10.6732 44.3645L7.52954 53.6422L17.2029 50.5691C21.1778 53.176 25.9409 54.7003 31.0567 54.7003C44.938 54.7003 56.2308 43.4934 56.2308 29.7194C56.2308 15.9454 44.9349 4.73241 31.0567 4.73241ZM46.1771 36.5589C45.9931 36.2553 45.5023 36.0712 44.7693 35.7093C44.0363 35.3444 40.4233 33.5808 39.7517 33.3416C39.08 33.0993 38.5862 32.9766 38.1016 33.7035C37.6109 34.4335 36.2062 36.0743 35.7737 36.5589C35.3474 37.0466 34.9211 37.1048 34.185 36.7399C33.4489 36.3779 31.0843 35.6051 28.281 33.1269C26.1004 31.1947 24.6282 28.8116 24.1957 28.0817C23.7694 27.3548 24.1528 26.9591 24.5178 26.5972C24.849 26.269 25.2539 25.7476 25.6188 25.3244C25.9869 24.8981 26.1096 24.5914 26.3519 24.1068C26.5972 23.6191 26.4745 23.1959 26.2905 22.834C26.1096 22.469 24.6405 18.8867 24.027 17.4268C23.4198 15.97 22.8064 16.0252 22.377 16.0252C21.9476 16.0252 21.1563 16.1509 21.1563 16.1509C21.1563 16.1509 19.6841 16.3319 19.0125 17.0618C18.3408 17.7887 16.4454 19.5523 16.4454 23.1345C16.4454 26.7168 19.0738 30.1826 19.4388 30.6672C19.8068 31.1548 24.5147 38.7488 31.9798 41.6655C39.4419 44.5822 39.4419 43.6069 40.7883 43.4842C42.1317 43.3646 45.1312 41.7238 45.7416 40.0216C46.355 38.3194 46.355 36.8625 46.1709 36.5589H46.1771Z" fill="white"/>
</g>
<defs>
<clipPath id="clip0_1099_171">
<rect width="61" height="61" fill="white"/>
</clipPath>
</defs>
</svg>
